<svg id="layers"
  viewBox="0 0 1100 525"
  xmlns="http://www.w3.org/2000/svg"
  xmlns:xlink="http://www.w3.org/1999/xlink" >
    <g class="row">
        <path id="layer1" class="duck" d="M 0, 0
            L 0, 400
            Q 100, 450 200, 400
            T 400, 400 600, 400 800, 400 1000, 400 1200, 400
            L 1200, 0
            Z" 
            fill="#00A6AB"
        />
        <path class="duck" d="M 0, 0
            L 0, 325
            Q 100, 375 200, 325
            T 400, 325 600, 325 800, 325 1000, 325 1200, 325
            L 1200, 0
            Z" 
            fill="#00c9a7"
        />
        <path class="duck" d="M -50, 0
            L -50, 250
            Q 25, 300 100, 250
            T 250, 250 400, 250 550, 250 700, 250 850, 250 1000, 250 1150, 250
            L 1150, 0
            Z" 
            fill="#66D79B"
        />
        <path class="duck" d="M -12.5, 0
            L -12.5, 175
            Q 50, 225 112.5, 175
            T 237.5, 175 359.5, 175 487.5, 175 612.5, 175 737.5, 175 859.5, 175 987.5, 175 1112.5, 175
            L 1125, 0
            Z" 
            fill="#9CE492"
        />
        <path class="duck" d="M 0, 0
            L 0, 100
            Q 50, 150 100, 100
            T 200, 100 300, 100 400, 100 500, 100 600, 100 700, 100 800, 100 900, 100 1000, 100 1100, 100
            L 1100, 0
            Z" 
            fill="#CDEE8F"
        /> 
    </g>
</svg>